HIERARCHY
ROOT hip
{
  OFFSET 5.70873 43.8894 -1.52928
  CHANNELS 6 Xposition Yposition Zposition Zrotation Xrotation Yrotation
  JOINT abdomen
  {
    OFFSET 0 5.99393 0.287273
    CHANNELS 6 Xposition Yposition Zposition Zrotation Xrotation Yrotation
    JOINT chest
    {
      OFFSET 0 6.65865 -0.856112
      CHANNELS 6 Xposition Yposition Zposition Zrotation Xrotation Yrotation
      JOINT neck
      {
        OFFSET 0 8.65624 -1.42685
        CHANNELS 6 Xposition Yposition Zposition Zrotation Xrotation Yrotation
        JOINT head
        {
          OFFSET 0 3.80999 -0.190247
          CHANNELS 6 Xposition Yposition Zposition Zrotation Xrotation Yrotation
          End Site
          {
            OFFSET 0 0 0
          }
        }
      }
      JOINT rCollar
      {
        OFFSET -1.4963 7.5744 -1.52136
        CHANNELS 6 Xposition Yposition Zposition Zrotation Xrotation Yrotation
        JOINT rShldr
        {
          OFFSET -5.47506 -0.905672 0.485692
          CHANNELS 6 Xposition Yposition Zposition Zrotation Xrotation Yrotation
          JOINT rForeArm
          {
            OFFSET -11.3069 -0.201091 0.618544
            CHANNELS 6 Xposition Yposition Zposition Zrotation Xrotation Yrotation
            JOINT rHand
            {
              OFFSET -9.61414 -0.254739 3.48553
              CHANNELS 6 Xposition Yposition Zposition Zrotation Xrotation Yrotation
              JOINT rThumb1
              {
                OFFSET 0.176263 -0.07068 1.26622
                CHANNELS 6 Xposition Yposition Zposition Zrotation Xrotation Yrotation
                JOINT rThumb2
                {
                  OFFSET -1.04683 -0.546484 1.82182
                  CHANNELS 6 Xposition Yposition Zposition Zrotation Xrotation Yrotation
                  JOINT rThumb3
                  {
                    OFFSET -0.993472 -0.621916 0.655506
                    CHANNELS 6 Xposition Yposition Zposition Zrotation Xrotation Yrotation
                    End Site
                    {
                      OFFSET -0.996134 -0.66263 0.644615
                    }
                  }
                }
              }
              JOINT rIndex1
              {
                OFFSET -2.64253 0.566363 2.4162
                CHANNELS 6 Xposition Yposition Zposition Zrotation Xrotation Yrotation
                JOINT rIndex2
                {
                  OFFSET -1.39394 -0.635138 0.899356
                  CHANNELS 6 Xposition Yposition Zposition Zrotation Xrotation Yrotation
                  JOINT rIndex3
                  {
                    OFFSET -0.622395 -0.856016 0.402182
                    CHANNELS 6 Xposition Yposition Zposition Zrotation Xrotation Yrotation
                    End Site
                    {
                      OFFSET -0.472476 -0.801802 0.34216
                    }
                  }
                }
              }
              JOINT rMid1
              {
                OFFSET -3.20814 0.514427 1.52547
                CHANNELS 6 Xposition Yposition Zposition Zrotation Xrotation Yrotation
                JOINT rMid2
                {
                  OFFSET -1.56545 -0.497974 0.68919
                  CHANNELS 6 Xposition Yposition Zposition Zrotation Xrotation Yrotation
                  JOINT rMid3
                  {
                    OFFSET -0.679943 -1.17582 0.444246
                    CHANNELS 6 Xposition Yposition Zposition Zrotation Xrotation Yrotation
                    End Site
                    {
                      OFFSET -0.343874 -0.941341 0.267611
                    }
                  }
                }
              }
              JOINT rRing1
              {
                OFFSET -3.47877 0.200518 0.597719
                CHANNELS 6 Xposition Yposition Zposition Zrotation Xrotation Yrotation
                JOINT rRing2
                {
                  OFFSET -1.28208 -0.53155 0.44672
                  CHANNELS 6 Xposition Yposition Zposition Zrotation Xrotation Yrotation
                  JOINT rRing3
                  {
                    OFFSET -0.710288 -0.970167 0.4032
                    CHANNELS 6 Xposition Yposition Zposition Zrotation Xrotation Yrotation
                    End Site
                    {
                      OFFSET -0.403228 -0.950952 0.378354
                    }
                  }
                }
              }
              JOINT rPinky1
              {
                OFFSET -3.42483 -0.278904 -0.240415
                CHANNELS 6 Xposition Yposition Zposition Zrotation Xrotation Yrotation
                JOINT rPinky2
                {
                  OFFSET -1.05787 -0.635999 0.156459
                  CHANNELS 6 Xposition Yposition Zposition Zrotation Xrotation Yrotation
                  JOINT rPinky3
                  {
                    OFFSET -0.42815 -0.754232 0.287187
                    CHANNELS 6 Xposition Yposition Zposition Zrotation Xrotation Yrotation
                    End Site
                    {
                      OFFSET -0.235717 -0.725605 0.279416
                    }
                  }
                }
              }
            }
          }
        }
      }
      JOINT lCollar
      {
        OFFSET 1.4963 7.5744 -1.52136
        CHANNELS 6 Xposition Yposition Zposition Zrotation Xrotation Yrotation
        JOINT lShldr
        {
          OFFSET 5.47506 -0.905672 0.485692
          CHANNELS 6 Xposition Yposition Zposition Zrotation Xrotation Yrotation
          JOINT lForeArm
          {
            OFFSET 11.3069 -0.201091 0.618544
            CHANNELS 6 Xposition Yposition Zposition Zrotation Xrotation Yrotation
            JOINT lHand
            {
              OFFSET 9.61414 -0.254739 3.48553
              CHANNELS 6 Xposition Yposition Zposition Zrotation Xrotation Yrotation
              JOINT lThumb1
              {
                OFFSET -0.176263 -0.07068 1.26622
                CHANNELS 6 Xposition Yposition Zposition Zrotation Xrotation Yrotation
                JOINT lThumb2
                {
                  OFFSET 1.04683 -0.546484 1.82182
                  CHANNELS 6 Xposition Yposition Zposition Zrotation Xrotation Yrotation
                  JOINT lThumb3
                  {
                    OFFSET 0.993472 -0.621916 0.655506
                    CHANNELS 6 Xposition Yposition Zposition Zrotation Xrotation Yrotation
                    End Site
                    {
                      OFFSET 0.996134 -0.66263 0.644615
                    }
                  }
                }
              }
              JOINT lIndex1
              {
                OFFSET 2.64253 0.566363 2.4162
                CHANNELS 6 Xposition Yposition Zposition Zrotation Xrotation Yrotation
                JOINT lIndex2
                {
                  OFFSET 1.39394 -0.635138 0.899356
                  CHANNELS 6 Xposition Yposition Zposition Zrotation Xrotation Yrotation
                  JOINT lIndex3
                  {
                    OFFSET 0.622395 -0.856016 0.402182
                    CHANNELS 6 Xposition Yposition Zposition Zrotation Xrotation Yrotation
                    End Site
                    {
                      OFFSET 0.472476 -0.801802 0.34216
                    }
                  }
                }
              }
              JOINT lMid1
              {
                OFFSET 3.20814 0.514427 1.52547
                CHANNELS 6 Xposition Yposition Zposition Zrotation Xrotation Yrotation
                JOINT lMid2
                {
                  OFFSET 1.56545 -0.497974 0.68919
                  CHANNELS 6 Xposition Yposition Zposition Zrotation Xrotation Yrotation
                  JOINT lMid3
                  {
                    OFFSET 0.679943 -1.17582 0.444246
                    CHANNELS 6 Xposition Yposition Zposition Zrotation Xrotation Yrotation
                    End Site
                    {
                      OFFSET 0.343874 -0.941341 0.267611
                    }
                  }
                }
              }
              JOINT lRing1
              {
                OFFSET 3.47877 0.200518 0.597719
                CHANNELS 6 Xposition Yposition Zposition Zrotation Xrotation Yrotation
                JOINT lRing2
                {
                  OFFSET 1.28208 -0.53155 0.44672
                  CHANNELS 6 Xposition Yposition Zposition Zrotation Xrotation Yrotation
                  JOINT lRing3
                  {
                    OFFSET 0.710288 -0.970167 0.4032
                    CHANNELS 6 Xposition Yposition Zposition Zrotation Xrotation Yrotation
                    End Site
                    {
                      OFFSET 0.403228 -0.950952 0.378354
                    }
                  }
                }
              }
              JOINT lPinky1
              {
                OFFSET 3.42483 -0.278904 -0.240415
                CHANNELS 6 Xposition Yposition Zposition Zrotation Xrotation Yrotation
                JOINT lPinky2
                {
                  OFFSET 1.05787 -0.635999 0.156459
                  CHANNELS 6 Xposition Yposition Zposition Zrotation Xrotation Yrotation
                  JOINT lPinky3
                  {
                    OFFSET 0.42815 -0.754232 0.287187
                    CHANNELS 6 Xposition Yposition Zposition Zrotation Xrotation Yrotation
                    End Site
                    {
                      OFFSET 0.235717 -0.725605 0.279416
                    }
                  }
                }
              }
            }
          }
        }
      }
    }
  }
  JOINT rThigh
  {
    OFFSET -4.17848 -1.02486 0.046356
    CHANNELS 6 Xposition Yposition Zposition Zrotation Xrotation Yrotation
    JOINT rShin
    {
      OFFSET 1.27155 -17.465 -0.237699
      CHANNELS 6 Xposition Yposition Zposition Zrotation Xrotation Yrotation
      JOINT rFoot
      {
        OFFSET 0.529163 -17.3815 -1.19582
        CHANNELS 6 Xposition Yposition Zposition Zrotation Xrotation Yrotation
        JOINT rToe
        {
          OFFSET -0.711591 -4.4863 4.0596
          CHANNELS 6 Xposition Yposition Zposition Zrotation Xrotation Yrotation
          End Site
          {
            OFFSET -0.869915 -1.10655 1.99006
          }
        }
      }
    }
  }
  JOINT lThigh
  {
    OFFSET 4.17848 -1.02486 0.046356
    CHANNELS 6 Xposition Yposition Zposition Zrotation Xrotation Yrotation
    JOINT lShin
    {
      OFFSET -1.27155 -17.465 -0.237699
      CHANNELS 6 Xposition Yposition Zposition Zrotation Xrotation Yrotation
      JOINT lFoot
      {
        OFFSET -0.529163 -17.3815 -1.19582
        CHANNELS 6 Xposition Yposition Zposition Zrotation Xrotation Yrotation
        JOINT lToe
        {
          OFFSET 0.711591 -4.4863 4.0596
          CHANNELS 6 Xposition Yposition Zposition Zrotation Xrotation Yrotation
          End Site
          {
            OFFSET 0.869915 -1.10655 1.99006
          }
        }
      }
    }
  }
}
MOTION
Frames:	4
Frame Time:	0.0333333
2.53405 44.381 -0.718913 -3.07358e-005 1.70755e-006 -5.12264e-006 -4.44089e-016 5.99393 0.287273 0.768793 -0.00570138 0.147937 4.44089e-016 6.65865 -0.856112 1.5376 -0.00941727 0.295938 0 8.65624 -1.42685 0.000227777 -7.51643e-007 4.63106e-005 0 3.80999 -0.190247 -3.36657e-006 -3.45947e-006 -2.94544e-006 -1.4963 7.5744 -1.52136 0.000234646 -6.46078e-006 4.95723e-005 -5.47506 -0.905672 0.485692 75.3783 -5.52174 -6.19836 -11.3069 -0.201091 0.618544 0.559551 -0.573952 16.0397 -9.61414 -0.254739 3.48553 -0.000798698 -0.000447025 0.000832868 0.176263 -0.07068 1.26622 3.20583e-005 -3.34415e-005 -7.24275e-006 -1.04683 -0.546484 1.82182 1.81417e-006 1.52873e-005 9.5022e-006 -0.993472 -0.621916 0.655506 9.24074e-006 -5.26017e-006 9.49405e-007 -2.64253 0.566363 2.4162 1.94938e-005 -9.33851e-006 -7.14988e-007 -1.39394 -0.635138 0.899356 5.46183e-007 2.27769e-006 6.89117e-006 -0.622395 -0.856016 0.402182 -2.01258e-005 -8.18607e-006 -2.10336e-006 -3.20814 0.514427 1.52547 2.45011e-005 -2.27831e-006 9.66876e-007 -1.56545 -0.497974 0.68919 3.08022e-005 2.06955e-005 7.39718e-007 -0.679943 -1.17582 0.444246 -9.57321e-006 1.67696e-006 -1.33576e-006 -3.47877 0.200518 0.597719 4.37302e-005 8.3724e-007 -5.9345e-006 -1.28208 -0.53155 0.44672 -2.32159e-008 1.91974e-007 -2.1449e-005 -0.710288 -0.970167 0.4032 6.23349e-006 9.77728e-006 2.13074e-005 -3.42483 -0.278904 -0.240415 2.60934e-005 7.77948e-006 -5.52304e-006 -1.05787 -0.635999 0.156459 -1.42966e-006 -3.0555e-006 -2.42138e-006 -0.42815 -0.754232 0.287187 4.40184e-007 -3.9998e-006 -4.98493e-006 1.4963 7.5744 -1.52136 0.000244073 3.37848e-006 4.1713e-005 5.47506 -0.905672 0.485692 -76.545 4.9932 0.99719 11.3069 -0.201091 0.618544 -6.80442 -1.06167 -24.7587 9.61414 -0.254739 3.48553 0.000881531 -0.000377743 -0.000644103 -0.176263 -0.07068 1.26622 0.000103098 0.000160905 -4.66619e-005 1.04683 -0.546484 1.82182 -1.12054e-006 1.47115e-006 3.54988e-006 0.993472 -0.621916 0.655506 -8.76007e-006 -6.57577e-006 8.80313e-006 2.64253 0.566363 2.4162 -3.91061e-006 -1.88594e-006 -8.79031e-006 1.39394 -0.635138 0.899356 -5.31106e-006 -3.64353e-007 3.64717e-006 0.622395 -0.856016 0.402182 1.14224e-005 -8.44897e-006 4.73192e-006 3.20814 0.514427 1.52547 1.68089e-005 3.99033e-005 -6.38542e-007 1.56545 -0.497974 0.68919 -8.5196e-006 -6.16456e-006 -1.89613e-006 0.679943 -1.17582 0.444246 1.18088e-005 -8.67009e-006 -6.51432e-006 3.47877 0.200518 0.597719 -7.60844e-007 8.71603e-006 -1.02146e-005 1.28208 -0.53155 0.44672 -8.56222e-007 -5.4611e-007 8.43787e-006 0.710288 -0.970167 0.4032 3.97569e-016 -7.95139e-016 -0 3.42483 -0.278904 -0.240415 4.10792e-006 9.06576e-006 -2.26521e-005 1.05787 -0.635999 0.156459 -1.59048e-005 7.87813e-006 -3.54065e-006 0.42815 -0.754232 0.287187 5.47629e-006 -4.6081e-006 9.6177e-007 -4.17848 -1.02486 0.046356 -9.93809 1.80641 0.173281 1.27155 -17.465 -0.237699 0.0141055 -0.397051 0.165498 0.529163 -17.3815 -1.19582 8.19589 -1.28689 -0.511131 -0.711591 -4.4863 4.0596 5.59355e-005 -3.73977e-006 -5.08197e-006 4.17848 -1.02486 0.046356 2.03059 -1.71979 0.761312 -1.27155 -17.465 -0.237699 0.0480552 3.51586 -0.103848 -0.529163 -17.3815 -1.19582 0.864728 -2.04507 0.0182381 0.711591 -4.4863 4.0596 5.66807e-005 -1.42393e-005 1.34902e-006 
2.5332 44.3813 -0.717865 0.00793064 0.203794 -0.00235516 4.44089e-016 5.99393 0.287273 0.759254 -0.0786811 0.149242 -4.44089e-016 6.65865 -0.856112 1.51871 -0.155389 0.299513 8.88178e-016 8.65624 -1.42685 0.0311328 0.415634 -0.0163227 8.88178e-016 3.80999 -0.190247 0.0251848 0.400811 -0.0181093 -1.4963 7.5744 -1.52136 -0.00448884 0.00117154 0.00317835 -5.47506 -0.905672 0.485692 75.333 -5.43073 -6.18493 -11.3069 -0.201091 0.618544 0.57933 -0.340307 16.1237 -9.61414 -0.254739 3.48553 0.052748 0.0588203 0.0123591 0.176263 -0.07068 1.26622 -0.00459578 0.009787 -0.0223179 -1.04683 -0.546484 1.82182 -0.00175835 0.0018622 -0.00520593 -0.993472 -0.621916 0.655506 -0.0043423 0.00461043 -0.013098 -2.64253 0.566363 2.4162 0.0415845 0.0152946 -0.0124111 -1.39394 -0.635138 0.899356 0.027977 0.00744733 -0.00410207 -0.622395 -0.856016 0.402182 0.0322564 0.00859453 -0.00475537 -3.20814 0.514427 1.52547 0.0281019 0.0144451 -0.0059621 -1.56545 -0.497974 0.68919 0.0354502 0.0108968 -0.00505405 -0.679943 -1.17582 0.444246 0.0275861 0.00848632 -0.00393595 -3.47877 0.200518 0.597719 0.0252608 0.0033461 -0.000332275 -1.28208 -0.53155 0.44672 0.0343302 0.0118769 -0.00630095 -0.710288 -0.970167 0.4032 0.0266359 0.00921395 -0.00483441 -3.42483 -0.278904 -0.240415 0.0267557 0.00778112 -0.0017657 -1.05787 -0.635999 0.156459 0.0301013 0.0112829 -0.00508748 -0.42815 -0.754232 0.287187 0.0521996 0.0195529 -0.00880545 1.4963 7.5744 -1.52136 -0.0055098 0.00404996 0.0362934 5.47506 -0.905672 0.485692 -76.4811 4.43304 1.46252 11.3069 -0.201091 0.618544 -6.86513 -2.22466 -24.7582 9.61414 -0.254739 3.48553 -0.0150678 -0.0737666 0.0231556 -0.176263 -0.07068 1.26622 -0.000125286 -0.00393585 -0.00596873 1.04683 -0.546484 1.82182 0.00478057 0.00141002 0.0085373 0.993472 -0.621916 0.655506 0.00497996 0.00148269 0.00887463 2.64253 0.566363 2.4162 0.00800257 -0.00341141 0.000721729 1.39394 -0.635138 0.899356 -0.00793092 0.00458985 0.00703062 0.622395 -0.856016 0.402182 -0.00783982 0.00519794 0.00667324 3.20814 0.514427 1.52547 0.00680866 -0.00248139 -0.00272717 1.56545 -0.497974 0.68919 1.32362e-006 -3.13718e-005 -2.30111e-005 0.679943 -1.17582 0.444246 1.94831e-005 -1.7733e-005 -4.99464e-006 3.47877 0.200518 0.597719 0.00783443 -0.00388183 -0.00395239 1.28208 -0.53155 0.44672 0.00450813 -0.00189268 -0.002047 0.710288 -0.970167 0.4032 0.00591354 -0.00248499 -0.00270028 3.42483 -0.278904 -0.240415 0.0131305 -0.00568133 -0.00551704 1.05787 -0.635999 0.156459 0.00715906 -0.00325345 -0.0032171 0.42815 -0.754232 0.287187 0.00445528 -0.00162933 -0.00187803 -4.17848 -1.02486 0.046356 -9.94204 1.59928 0.161721 1.27155 -17.465 -0.237699 0.0110861 -0.395251 0.152965 0.529163 -17.3815 -1.19582 8.19407 -1.2823 -0.52035 -0.711591 -4.4863 4.0596 5.54661e-005 9.04812e-006 -4.7293e-006 4.17848 -1.02486 0.046356 2.02396 -1.92256 0.770719 -1.27155 -17.465 -0.237699 0.0482286 3.50628 -0.102049 -0.529163 -17.3815 -1.19582 0.863794 -2.03613 0.0179472 0.711591 -4.4863 4.0596 4.56609e-005 1.01213e-006 -3.7103e-006 
2.53096 44.3817 -0.721703 0.0181174 0.412869 -0.00668207 0 5.99393 0.287273 0.749456 -0.166765 0.151872 -4.44089e-016 6.65865 -0.856112 1.49937 -0.331619 0.305916 -8.88178e-016 8.65624 -1.42685 0.0708789 0.904688 -0.037757 0 3.80999 -0.190247 0.0485035 0.848414 -0.0442838 -1.4963 7.5744 -1.52136 -0.0189116 0.00477536 0.0122393 -5.47506 -0.905672 0.485692 75.3029 -5.34236 -6.24223 -11.3069 -0.201091 0.618544 0.652592 -0.214916 16.3507 -9.61414 -0.254739 3.48553 0.205763 0.230323 0.0442191 0.176263 -0.07068 1.26622 -0.0174055 0.0372593 -0.0869114 -1.04683 -0.546484 1.82182 -0.00351416 0.00369415 -0.0104368 -0.993472 -0.621916 0.655506 -0.0170204 0.0179513 -0.0509264 -2.64253 0.566363 2.4162 0.152793 0.0669479 -0.0722525 -1.39394 -0.635138 0.899356 0.108807 0.02898 -0.0160366 -0.622395 -0.856016 0.402182 0.125509 0.0334199 -0.0185193 -3.20814 0.514427 1.52547 0.109159 0.0562139 -0.0232221 -1.56545 -0.497974 0.68919 0.137832 0.0423205 -0.0196681 -0.679943 -1.17582 0.444246 0.107387 0.0329891 -0.0153126 -3.47877 0.200518 0.597719 0.100167 0.0311248 -0.0159344 -1.28208 -0.53155 0.44672 0.133527 0.0461849 -0.0244579 -0.710288 -0.970167 0.4032 0.10349 0.0358044 -0.0189028 -3.42483 -0.278904 -0.240415 0.103998 0.0302368 -0.00688565 -1.05787 -0.635999 0.156459 0.117059 0.0438628 -0.0197918 -0.42815 -0.754232 0.287187 0.104366 0.0391128 -0.0176544 1.4963 7.5744 -1.52136 -0.0224169 0.0157455 0.139702 5.47506 -0.905672 0.485692 -76.4476 3.93764 1.94149 11.3069 -0.201091 0.618544 -6.83282 -3.22451 -24.5628 9.61414 -0.254739 3.48553 -0.0602211 -0.28354 0.0929102 -0.176263 -0.07068 1.26622 -0.000862313 -0.0196993 -0.0289612 1.04683 -0.546484 1.82182 0.00957785 0.00283812 0.0170967 0.993472 -0.621916 0.655506 0.00997598 0.00296295 0.0177532 2.64253 0.566363 2.4162 0.016033 -0.00681131 0.0014459 1.39394 -0.635138 0.899356 -0.015878 0.00918217 0.014073 0.622395 -0.856016 0.402182 -0.0157107 0.010396 0.0133368 3.20814 0.514427 1.52547 0.0267796 -0.00983935 -0.0107373 1.56545 -0.497974 0.68919 3.542e-006 -1.859e-005 -2.46855e-005 0.679943 -1.17582 0.444246 5.54124e-006 -2.83532e-005 2.23702e-006 3.47877 0.200518 0.597719 0.0308246 -0.0153484 -0.0155133 1.28208 -0.53155 0.44672 0.00902853 -0.00377205 -0.00410478 0.710288 -0.970167 0.4032 0.0117725 -0.00495431 -0.00537981 3.42483 -0.278904 -0.240415 0.0515974 -0.02243 -0.0216506 1.05787 -0.635999 0.156459 0.0143726 -0.00652166 -0.00642086 0.42815 -0.754232 0.287187 0.00884593 -0.0032331 -0.00373563 -4.17848 -1.02486 0.046356 -9.9471 1.37661 0.149522 1.27155 -17.465 -0.237699 0.00963089 -0.390168 0.140779 0.529163 -17.3815 -1.19582 8.19241 -1.27482 -0.52969 -0.711591 -4.4863 4.0596 5.5488e-005 3.13935e-006 -6.60707e-006 4.17848 -1.02486 0.046356 2.01722 -2.13739 0.779479 -1.27155 -17.465 -0.237699 0.0483807 3.4941 -0.100158 -0.529163 -17.3815 -1.19582 0.86044 -2.01774 0.0184061 0.711591 -4.4863 4.0596 5.35138e-005 -7.47108e-006 -7.90617e-007 
2.52739 44.3821 -0.729864 0.0307519 0.642082 -0.0131311 -4.44089e-016 5.99393 0.287273 0.738115 -0.269631 0.157093 4.44089e-016 6.65865 -0.856112 1.477 -0.53721 0.317653 0 8.65624 -1.42685 0.120324 1.46464 -0.0669573 8.88178e-016 3.80999 -0.190247 0.070602 1.3432 -0.0807947 -1.4963 7.5744 -1.52136 -0.0415187 0.0104815 0.027149 -5.47506 -0.905672 0.485692 75.2832 -5.24965 -6.33928 -11.3069 -0.201091 0.618544 0.773286 -0.1862 16.7022 -9.61414 -0.254739 3.48553 0.44676 0.504507 0.0916355 0.176263 -0.07068 1.26622 -0.0379845 0.0815536 -0.189876 -1.04683 -0.546484 1.82182 -0.00526384 0.00554246 -0.0156583 -0.993472 -0.621916 0.655506 -0.0372203 0.0392522 -0.111291 -2.64253 0.566363 2.4162 0.33396 0.146214 -0.158079 -1.39394 -0.635138 0.899356 0.237798 0.063289 -0.0351208 -0.622395 -0.856016 0.402182 0.299402 0.079633 -0.0442829 -3.20814 0.514427 1.52547 0.238512 0.1228 -0.0508355 -1.56545 -0.497974 0.68919 0.301214 0.0924209 -0.0430974 -0.679943 -1.17582 0.444246 0.256194 0.078612 -0.0366213 -3.47877 0.200518 0.597719 0.218845 0.067937 -0.0348986 -1.28208 -0.53155 0.44672 0.288406 0.0963826 -0.0508882 -0.710288 -0.970167 0.4032 0.246894 0.0853402 -0.045235 -3.42483 -0.278904 -0.240415 0.221604 0.062708 -0.0132323 -1.05787 -0.635999 0.156459 0.2558 0.0957974 -0.0433642 -0.42815 -0.754232 0.287187 0.248947 0.0932426 -0.0422128 1.4963 7.5744 -1.52136 -0.0482392 0.0339334 0.302552 5.47506 -0.905672 0.485692 -76.4359 3.50108 2.42649 11.3069 -0.201091 0.618544 -6.71759 -4.06793 -24.1902 9.61414 -0.254739 3.48553 -0.130113 -0.614122 0.206126 -0.176263 -0.07068 1.26622 -0.00161635 -0.0354534 -0.0519579 1.04683 -0.546484 1.82182 0.0143674 0.00426624 0.0256589 0.993472 -0.621916 0.655506 0.0242638 0.00721391 0.0432533 2.64253 0.566363 2.4162 0.042435 -0.0180637 0.00383767 1.39394 -0.635138 0.899356 -0.0238231 0.0137851 0.0211285 0.622395 -0.856016 0.402182 -0.0236102 0.015599 0.0200224 3.20814 0.514427 1.52547 0.0651537 -0.0240105 -0.0261219 1.56545 -0.497974 0.68919 -3.15031e-005 -1.71721e-005 -1.63338e-006 0.679943 -1.17582 0.444246 5.27805e-006 -3.15966e-005 7.94934e-006 3.47877 0.200518 0.597719 0.0641824 -0.0387476 -0.0376164 1.28208 -0.53155 0.44672 0.0134642 -0.00564636 -0.00614188 0.710288 -0.970167 0.4032 0.0176584 -0.00741866 -0.00806567 3.42483 -0.278904 -0.240415 0.114182 -0.0496454 -0.0478672 1.05787 -0.635999 0.156459 0.0215337 -0.00977203 -0.00961937 0.42815 -0.754232 0.287187 0.0132304 -0.00482643 -0.00558404 -4.17848 -1.02486 0.046356 -9.95308 1.12241 0.135703 1.27155 -17.465 -0.237699 0.00939199 -0.37867 0.128746 0.529163 -17.3815 -1.19582 8.18537 -1.25863 -0.539956 -0.711591 -4.4863 4.0596 5.0488e-005 -4.75116e-006 -1.71891e-006 4.17848 -1.02486 0.046356 2.00967 -2.37957 0.787666 -1.27155 -17.465 -0.237699 0.0485001 3.48096 -0.0982361 -0.529163 -17.3815 -1.19582 0.854774 -1.99151 0.0196128 0.711591 -4.4863 4.0596 6.02956e-005 -1.06949e-005 4.59786e-006 
